<?xml version="1.0" encoding="UTF-8" standalone="no"?>
<!-- Created with Inkscape (http://www.inkscape.org/) -->

<svg
   width="480.43665"
   height="358.10574"
   viewBox="0 0 480.43665 358.10574"
   version="1.1"
   id="svg1"
   xml:space="preserve"
   inkscape:version="1.3 (0e150ed6c4, 2023-07-21)"
   sodipodi:docname="johan-chereau-logo.svg"
   inkscape:export-filename="johan-chereau-logo.svg"
   inkscape:export-xdpi="96"
   inkscape:export-ydpi="96"
   xmlns:inkscape="http://www.inkscape.org/namespaces/inkscape"
   xmlns:sodipodi="http://sodipodi.sourceforge.net/DTD/sodipodi-0.dtd"
   xmlns:xlink="http://www.w3.org/1999/xlink"
   xmlns="http://www.w3.org/2000/svg"
   xmlns:svg="http://www.w3.org/2000/svg"><sodipodi:namedview
     id="namedview1"
     pagecolor="#ffffff"
     bordercolor="#000000"
     borderopacity="0.25"
     inkscape:showpageshadow="2"
     inkscape:pageopacity="0.0"
     inkscape:pagecheckerboard="0"
     inkscape:deskcolor="#d1d1d1"
     inkscape:document-units="px"
     inkscape:zoom="1.1338568"
     inkscape:cx="122.14946"
     inkscape:cy="265.02465"
     inkscape:window-width="1920"
     inkscape:window-height="1017"
     inkscape:window-x="1912"
     inkscape:window-y="-8"
     inkscape:window-maximized="1"
     inkscape:current-layer="layer1" /><defs
     id="defs1"><linearGradient
       id="linearGradient4"
       inkscape:collect="always"><stop
         style="stop-color:#1f3590;stop-opacity:1;"
         offset="0"
         id="stop4" /><stop
         style="stop-color:#3358ea;stop-opacity:1;"
         offset="1"
         id="stop5" /></linearGradient><linearGradient
       id="linearGradient2"
       inkscape:collect="always"><stop
         style="stop-color:#41e9e9;stop-opacity:1;"
         offset="0"
         id="stop2" /><stop
         style="stop-color:#3358ea;stop-opacity:1;"
         offset="1"
         id="stop3" /></linearGradient><linearGradient
       inkscape:collect="always"
       xlink:href="#linearGradient2"
       id="linearGradient3"
       x1="10.299856"
       y1="263.14481"
       x2="483.25296"
       y2="263.14481"
       gradientUnits="userSpaceOnUse" /><linearGradient
       inkscape:collect="always"
       xlink:href="#linearGradient4"
       id="linearGradient5"
       x1="36.41235"
       y1="260.42639"
       x2="490.73651"
       y2="260.42639"
       gradientUnits="userSpaceOnUse" /></defs><g
     inkscape:label="Calque 1"
     inkscape:groupmode="layer"
     id="layer1"
     transform="translate(-10.299856,-84.091942)"><path
       style="display:inline;fill:url(#linearGradient5);stroke:none;stroke-opacity:1"
       d="m 428.69531,323.87093 60.18027,40.61389 c 1.70992,1.36908 2.39335,2.96425 1.40317,5.53471 -43.12887,86.84758 -226.95258,101.521 -277.0475,-47.47381 -5.07107,-26.44406 -2.11675,-56.34352 -2.1827,-86.99635 7.07827,-54.08571 -21.7926,-68.08639 -48.3313,-73.97807 -25.99435,-0.78056 -55.69291,1.93224 -86.143018,-3.13805 -29.452918,-8.52649 -59.885297,-56.33648 -23.602883,-70.309834 1.640837,-1.644617 75.371701,-4.82132 134.315481,0.628503 37.86029,3.500486 47.5512,22.577381 60.68545,33.810561 18.02606,21.57104 38.28786,39.30653 41.92644,95.25242 0.14618,23.32622 -0.10856,43.75841 0.35264,70.04307 11.99517,92.16076 108.38206,89.32148 138.44395,36.01296 z"
       id="path2"
       sodipodi:nodetypes="ccccccccscccc" /><path
       style="display:inline;fill:url(#linearGradient3);fill-opacity:1;stroke:none;stroke-opacity:1"
       d="M 72.341048,330.91352 12.16078,371.52741 c -1.709917,1.36908 -2.3933512,2.96425 -1.403167,5.53471 43.128866,86.84758 226.952577,101.521 277.047507,-47.47381 5.07107,-26.44406 2.11675,-56.34352 2.1827,-86.99635 -2.32206,-51.49141 24.93562,-70.51065 50.20219,-77.09622 29.4232,-4.05535 59.12373,3.63561 78.78927,40.65905 l 54.73576,-30.53738 c 8.76238,-5.92764 12.12431,-20.77818 7.38629,-32.52173 -4.67689,-8.29297 -3.45067,-6.12302 -9.26043,-13.55992 -42.99798,-54.439026 -152.34724,-66.559147 -218.3091,0.30317 -18.02606,21.57104 -38.75558,39.07267 -42.39416,95.01856 -0.29966,25.34702 -1.30948,62.42924 -0.35264,70.04307 -11.99517,92.16076 -108.38206,89.32148 -138.443952,36.01296 z"
       id="path1"
       sodipodi:nodetypes="cccccccccccccc" /></g></svg>
